<svg width="68" height="39" viewBox="0 0 68 39" fill="none" xmlns="http://www.w3.org/2000/svg"><ellipse cx="17.532" cy="10.0626" rx="17.532" ry="10.0626" transform="matrix(0.782853 -0.622207 0.573905 0.818922 0 21.8164)" fill="black"/><ellipse cx="17.532" cy="10.0626" rx="17.532" ry="10.0626" transform="matrix(0.782853 -0.622207 0.573905 0.818922 16 21.8164)" fill="black"/><ellipse cx="17.532" cy="10.0626" rx="17.532" ry="10.0626" transform="matrix(0.782853 -0.622207 0.573905 0.818922 29 21.8164)" fill="black"/><path d="M20.3672 25.6221L20.3477 23.4932L25.4258 18.8252C26.7539 17.5557 27.457 16.7744 27.457 15.6611C27.457 14.4111 26.5 13.6299 25.2109 13.6299C23.8828 13.6299 23.0234 14.4697 23.0234 15.8174H20.2305C20.2109 13.0439 22.2617 11.2861 25.25 11.2861C28.2773 11.2861 30.2891 13.0049 30.2891 15.4658C30.2891 17.0674 29.5078 18.3955 26.5977 21.0322L24.4492 23.1221V23.2002H30.4844V25.6221H20.3672ZM47.3203 9.64551V27.4189H44.918V18.376H43.2969V26.6377H40.9727V10.1143H43.2969V16.3838H44.918V9.64551H47.3203ZM39.7227 11.833C39.7031 16.7939 38.2188 20.8564 33.2188 23.7666L31.7734 22.0479C35.3965 19.9189 36.9492 17.3115 37.3008 13.8252H32.6719V11.833H39.7227Z" fill="white"/></svg>
